<svg xmlns="http://www.w3.org/2000/svg" viewBox="0 0 1920 673" xml:space="preserve"><style>.st2{fill:#ddd}</style><path fill="#5382a1" d="M0 0h1920v673H0z"/><circle cx="956.6" cy="321.1" r="287.8" fill="#fff"/><path class="st2" d="M1091.6 415.5c-29.7 0-41.5-20.5-42-21.4l13.9-7.8c.3.4 8.1 13.2 28.1 13.2 22.3 0 54-17.4 65.5-43.2 6.2-13.8 6.8-27.1 1.9-36.3-4.1-7.5-11.6-12.1-22.4-13.8-24.4-3.8-36.8 32.8-36.9 33.2l-15.2-5c.7-2 16.8-49.9 54.5-44 19.9 3.1 29.5 13.6 34 21.9 7.5 13.6 6.9 32-1.3 50.5-14.5 32.5-52.9 52.7-80.1 52.7z"/><ellipse cx="956.6" cy="436.8" rx="227.3" ry="17.8" fill="#bbb"/><path class="st2" d="M827.9 382.6c23.1 46.2 58.6 63.9 66.6 84.3h124.3c8-20.4 43.5-38.2 66.6-84.3 15.4-30.9 24.1-67.7 28.2-88.8 1.7-8.8-5-16.9-13.9-16.9h-286c-9 0-15.6 8.2-13.9 16.9 3.9 21.1 12.6 58 28.1 88.8z"/><path d="M1183.9 436.8c0 9.8-101.7 17.8-227.3 17.8s-227.3-8-227.3-17.8c0 18.9 38.3 35.7 96.7 45.8l9 11.9c0 5.9 54.4 10.7 121.6 10.7s121.6-4.8 121.6-10.7l9-11.9c58.4-10.1 96.7-26.9 96.7-45.8z" fill="#999"/><path d="M939.2 268c-6.4-7.3-12.1-15.2-17.3-23.5-5.1-8.4-9.7-17.2-13-26.7-1.7-4.8-3.1-9.7-4-14.9l-.6-3.9c-.1-1.3-.2-2.6-.4-4-.2-2.8-.1-5.7.3-8.6.7-5.7 2.5-11.1 4.9-16.1 2.3-5 5.1-9.5 8.1-13.7 5.9-8.4 12.1-15.9 17.2-23.2 2.6-3.6 4.9-7.1 6.7-10.5 1.8-3.3 3.1-6.5 3.9-9.5.4-1.6.5-2.8.8-5.2.2-2.1.4-4.3.5-6.5.2-4.4.2-8.8 0-13.3-.5-9-1.8-18.2-4.4-27.8-.1-.3.1-.6.4-.6.2 0 .3 0 .4.1 2.1 1.5 4 3.3 5.8 5.1 1.8 1.9 3.4 3.9 4.9 6 3 4.2 5.6 8.8 7.7 13.6 2.1 4.8 3.7 9.9 4.8 15.1.3 1.3.5 2.6.8 3.9.2 1.3.4 2.6.6 4 .4 2.4.5 6 .1 9.1-.7 6.4-2.9 12.4-5.7 17.5-2.8 5.1-6.2 9.4-9.6 13.3-3.4 3.9-6.9 7.4-10.3 10.8-3.4 3.4-6.6 6.7-9.6 10-6 6.6-10.9 13.5-13 21-.5 1.9-.9 3.8-1.1 5.8-.1 1.1-.1 2.1-.1 3.2v3.3c.1 4.4.7 8.9 1.5 13.4.9 4.5 2 9 3.4 13.5s3 8.9 4.8 13.3c3.5 8.8 7.7 17.4 12.4 25.8.1.2.1.5-.2.7-.3-.3-.6-.3-.7-.5zm21.7-.8c6.6-3.2 12.9-6.7 18.6-10.7 2.8-2 5.5-4.2 7.9-6.5 2.3-2.3 4.3-4.8 5.7-7.4.3-.7.7-1.3.9-1.9.1-.3.3-.6.4-1l.3-1c.1-.3.2-.7.2-1l.2-1c0-.7.2-1.3.1-2 0-.7 0-1.3-.1-2 0-.7-.2-1.3-.3-2-.3-1.3-.7-2.5-1.3-3.6-2.2-4.4-7.4-8.1-13.4-12.3-1.5-1-3.1-2.2-4.6-3.4-1.6-1.2-3.2-2.6-4.7-4.1-1.5-1.5-3-3.3-4.3-5.2-1.3-1.9-2.4-4.1-3.1-6.4-.8-2.3-1.1-4.7-1.2-7 0-1.1-.1-2.3.1-3.4.1-.6.1-1.1.2-1.7l.3-1.7c.2-1.1.5-2.2.8-3.3.4-1 .7-2.1 1.1-3.1.5-1 .9-2 1.4-2.9l.8-1.4.8-1.3c2.3-3.5 5-6.5 7.8-9.1 2.9-2.7 5.9-5 9.1-7.1 3.2-2.1 6.5-3.9 9.8-5.5 3.4-1.6 6.8-3 10.4-4.1.3-.1.6.1.6.3.1.2 0 .4-.2.5-5.7 4.5-11.2 9.2-16.2 14.3-2.5 2.5-4.8 5.1-6.8 7.8-1 1.3-2 2.7-2.9 4.1-.8 1.4-1.7 2.8-2.3 4.2l-.5 1.1-.4 1.1c-.3.7-.5 1.4-.7 2.1-.2.7-.4 1.4-.5 2.1-.1.7-.3 1.4-.3 2.1-.2 2.7 0 5.5 1 7.7.2.6.5 1.1.8 1.7.3.5.6 1.1 1 1.6.8 1.1 1.7 2.1 2.8 3.1 2.1 2.1 4.8 4 7.8 6 1.5 1 3 2.1 4.5 3.3 1.5 1.2 3.1 2.4 4.7 3.8 1.5 1.4 3.1 3 4.5 4.8 1.4 1.8 2.6 3.8 3.6 6s1.5 4.5 1.9 6.8c.1 1.2.2 2.3.2 3.4s-.1 2.3-.2 3.4c-.4 4.7-2.4 9-4.9 12.6-1.3 1.8-2.7 3.4-4.2 4.8-1.5 1.5-3.1 2.7-4.7 3.9-3.3 2.3-6.7 4.1-10.2 5.6-3.5 1.5-7.1 2.7-10.7 3.6-3.6.9-7.3 1.6-11 1.9-.3 0-.5-.2-.5-.5-.4.2-.3 0-.1-.1z" fill="#e76f00"/></svg>