<svg xmlns="http://www.w3.org/2000/svg" viewBox="0 0 1920 673" xml:space="preserve"><style>.st2{fill:#103140}</style><path fill="#3aaf9d" d="M0 0h1920v673H0z"/><path d="M1428.1 411.1c-10.5 0-17.1-3-19.6-8.5-2.5-6-4-17.6-4-34.7V274h58.8v-39.7h-58.8v-61.8h-46.2v61.8h-32.6V274h32.6v98.9c0 30.6 4.5 51.7 13.6 62.8 9 11 25.6 16.6 49.7 16.6 10 0 24.1-2 43.7-5.5l-2-37.2-35.2 1.5zm-246.6-255.2c-43.7 0-74.8 12.6-92.4 37.7-17.6 25.1-26.6 63.3-26.6 115 0 51.2 8.5 88.9 26.1 113 17.1 23.6 48.2 35.7 92.4 35.7 12.1 0 20.6-1 26.1-2.5l37.7 62.3 43.7-20.6-35.2-57.3c16.6-11 28.6-27.1 35.7-48.2 7.5-21.1 11-48.7 11-82.9 0-51.7-9-90.4-26.6-115s-48.2-37.2-91.9-37.2zm54.7 236.1c-9.5 16.6-28.1 24.6-55.2 24.6s-45.7-8.5-55.2-25.1-14.6-44.2-14.6-82.9 5-66.8 15.1-84.4c9.5-17.6 28.1-26.6 54.7-26.6s44.7 9 54.7 26.1c9.5 17.6 14.6 46.2 14.6 84.9 0 39.2-5 66.8-14.1 83.4z" fill="#fff"/><path class="st2" d="M663.7 586.1h44v69h-44v-69z"/><path class="st2" d="M837.1 653.4c-.8-.8-2.3-1.4-3.4-1.4h-296c-1.1 0-2.6.6-3.4 1.4l-18.2 18.2c-.8.8-.5 1.4.6 1.4h338c1.1 0 1.4-.6.6-1.4l-18.2-18.2z"/><path d="M694.7 591.1c0 1.1-.9 2-2 2h-14c-1.1 0-2-.9-2-2v-1c0-1.1.9-2 2-2h14c1.1 0 2 .9 2 2v1z" fill="#b24b53"/><path d="M657.7 576.1c0-1.1.9-2 2-2h52c1.1 0 2 .9 2 2v9c0 1.1-.9 2-2 2h-52c-1.1 0-2-.9-2-2v-9z" fill="#08222b"/><path class="st2" d="M434.7 267.6c-2.8 0-5 2.3-5 5v297.2c0 2.8 2.3 5 5 5h502c2.8 0 5-2.3 5-5V272.6c0-2.8-2.3-5-5-5h-502z"/><path d="M919.4 546.2c0 2.8-2.3 5-5 5H457.1c-2.8 0-5-2.3-5-5V293.6c0-2.8 2.3-5 5-5h457.3c2.8 0 5 2.3 5 5v252.6z" fill="#f8f8f8"/><path fill="#cc584c" d="M491.7 315h172.2v57.1H491.7z"/><path fill="#5dc0c1" d="M701 315h178.8v57.1H701z"/><path d="M565.1 482.7h-42.4v-8.4l20-21.3c2.7-3 4.8-5.6 6.1-7.9 1.3-2.2 2-4.4 2-6.4 0-2.7-.7-4.9-2.1-6.5-1.4-1.6-3.4-2.4-6-2.4-2.8 0-5 1-6.6 2.9-1.6 1.9-2.4 4.4-2.4 7.5h-12.3c0-3.8.9-7.2 2.7-10.3 1.8-3.1 4.3-5.6 7.6-7.3 3.3-1.8 7-2.7 11.2-2.7 6.4 0 11.3 1.5 14.9 4.6s5.3 7.4 5.3 13c0 3.1-.8 6.2-2.4 9.4-1.6 3.2-4.3 6.9-8.2 11.1l-14.1 14.8H565v9.9zm54.5-34.7H635v11.1h-15.4v17.3h-11.7v-17.3h-15.4V448h15.4v-16.6h11.7V448zm86.3 34.7h-42.4v-8.4l20-21.3c2.7-3 4.8-5.6 6.1-7.9 1.3-2.2 2-4.4 2-6.4 0-2.7-.7-4.9-2.1-6.5-1.4-1.6-3.4-2.4-6-2.4-2.8 0-5 1-6.6 2.9-1.6 1.9-2.4 4.4-2.4 7.5h-12.3c0-3.8.9-7.2 2.7-10.3 1.8-3.1 4.3-5.6 7.6-7.3 3.3-1.8 7-2.7 11.2-2.7 6.4 0 11.3 1.5 14.9 4.6s5.3 7.4 5.3 13c0 3.1-.8 6.2-2.4 9.4-1.6 3.2-4.3 6.9-8.2 11.1l-14.1 14.8h26.6v9.9zm68.8-31.8h-38v-10h38v10zm0 18.5h-38v-10h38v10zm68.3-10h7v9.9h-7v13.4h-12.3v-13.4h-25.4l-.6-7.7 25.8-40.8H843v38.6zm-26 0h13.7v-21.9l-.8 1.4-12.9 20.5z" fill="#61c5b8"/></svg>