<svg xmlns="http://www.w3.org/2000/svg" viewBox="0 0 1920 673" xml:space="preserve"><path fill="#6e9129" d="M0 0h1920v673H0z"/><path d="m1092 326.1 6-3.5V184.1l-6-3.5zm141-266.8-145.5 84.2 6 3.4L1233 66.4zm-160.5 278.1 6-3.5v-161l-6-3.5zm-1.5 42.5 87-50.3-6-3.5-81 46.7zm0 22.5 106.5-61.5-6-3.5-100.5 58zm96-102.2 81 46.7 6-3.5-87-50.3zm66-173.2-87 50.3 6 3.4 81-46.8zm0-22.5L1126.5 166l6 3.4 100.5-58zm-162 320.4 126-72.8-6-3.5-120 69.3zm60-121.3 6-3.5v-93.6l-6-3.5zm-19.5 11.3 6-3.5v-116l-6-3.5zM1233 82l-126 72.8 6 3.4 120-69.3zm0 384.5v-7l-87 50.3 6 3.5zm96 95.1-100.5-58-6 3.4 106.5 61.5zm0 22.5-120-69.3-6 3.4 126 72.8zm0-45-81-46.8-6 3.4 87 50.3zm-546 74.6 145.5-84.2-6-3.4L783 606.6zm546-7.1-139.5-80.5-6 3.4 145.5 84.2zm-7.5-267.6v161.1l6 3.5v-168zm7.5-64.9-139.5-80.6-6 3.5 145.5 84zm-258 173.3 145.5-84-6-3.5-139.5 80.6zm222 206.1-126-72.8v6.9l120 69.3zm-30-187.1 6 3.5V369.4l-6 3.4zm-96 98.7 139.5 80.5 6-3.4-145.5-84zm0 45 100.5 58 6-3.4-106.5-61.5zm162 22.7v-3.7l-159-91.8-3 1.8v3.5l159 91.8zm-198 3.4 6-3.5v-93.6l-6-3.4zM1233 437l-106.5 61.5 6 3.5 100.5-58.1zm-66.7 236h10.5l-5.3-3zm-74.3-14.3 6-3.5V516.6l-6-3.4zm75-388.1v6.9l100.5 58.1 6-3.5zm66 121.4-145.5 84 6 3.5 139.5-80.6zm0 22.5-126 72.8 6 3.5 120-69.3zM1425.7 0h-10.5l5.3 3zm183.8 1.4 6 3.5V0h-6zM1167 632.8l69.9 40.2h11.9l-81.8-47.3zm174-305v183.6l3 1.8 3-1.8V327.8l-3-1.7zm0-148.9 3 1.8 3-1.8V0h-6zm-229.5 468.6 6-3.5V527.9l-6-3.4zM1233 372.8l-3-1.7-159 91.8v3.5l3 1.8 159-91.8zm-162-258 145.5-84-6-3.4-139.5 80.5zm231 374.1 6 3.5V346.9l-6 3.4zm-231-355 3 1.8 159-91.8v-3.6l-3-1.6-159 91.8zm211.5 343.7 6 3.5v-123l-6 3.4zM1167 248.1v6.9l120 69.3 6-3.5zm0-22.5v6.9l139.5 80.6 6-3.5zm81-211.3 6-3.4L1235.1 0h-11.8zM1072.5 670l6-3.5V505.4l-6-3.4zM1071 47.3 1152.8 0h-11.9L1071 40.2zm0 22.5 106.5-61.5-6-3.4-100.5 58zm0 22.5 126-72.8-6-3.4-120 69.3zm-267-78v145.5l6-3.4V17.8zm190.5 297.1 6 3.5v-123l-6 3.5zM879 133.9l81 46.8 6-3.4-87-50.3zm0-29.4v6.9l100.5 58 6-3.4zm96 195.7 6 3.5V203.1l-6 3.5zM783 236l106.5-61.5-6-3.5L783 229.1zm0 45 145.5-84-6-3.5L783 274.1zm0-22.5 126-72.8-6-3.5-120 69.3zm60-221.7v100.5l6-3.4V40.3zM888.8 0h-11.9L858 10.9l6 3.4zM879 59.3v7.1l139.5 80.5 6-3.4zm0 22.7v6.9l120 69.3 6-3.4zm135 240.7 6 3.5V180.6l-6 3.5zM823.5 481.1l6-3.5V361.5l-6-3.4zM783 546l87-50.3-6-3.4-81 46.8zm1.5-42.4 6-3.5V339l-6-3.4zM783 300.2l3 1.7 159-91.8v-3.4l-3-1.8-159 91.8zm21 192.2 6-3.5V350.3l-6-3.4zM783 591l126-72.8-6-3.4-120 69.3zm0-22.5L889.5 507l-6-3.4-100.5 58zm162-342.9-145.5 84 6 3.5L945 232.5zm0 74.6v-7.1l-87 50.3 6 3.5zM823.5 25.5v123l6-3.4V29zM945 270.6l-106.5 61.5 6 3.5L945 277.5zm0-22.5-126 72.8 6 3.5 120-69.3zM843 469.9l6-3.5v-93.6l-6-3.4zM784.5 3v168l6-3.4V6.5zM879 392v6.9l139.5 80.6 6-3.5zM1078.5 1.4V0h-6v4.9zm189 1.6 5.3-3h-10.5zm54 3.5v161.1l6 3.4V3zM1617 40.3 1547 0h-12l82 47.4zm-564 121.3v183.6l3 1.7 3-1.7V161.6l-3-1.8zm0-149 3 1.7 3-1.7V0h-6zm276 216.5L1228.5 171l-6 3.5L1329 236zm0-22.5-81-46.8-6 3.5 87 50.3zm-66-166.3v93.6l6 3.4V36.8zm19.5-11.3v116.1l6 3.4v-123zm19.5-11.2v138.6l6 3.4V14.3zM1039.5 670V502l-6 3.4v161.1zM945 558.2l-145.5 84 6 3.4L945 565.1zm0 45-106.5 61.5 6 3.4 100.5-58zm0-64.1-3-1.8-159 91.8v3.7l3 1.6 159-91.8zm0 41.6-126 72.8 6 3.4 120-69.3zM783 213.5l87-50.3-6-3.5-81 46.8zm546 38.1-120-69.3-6 3.5 126 72.8zM945 625.7 863.2 673h11.9l69.9-40.2zm49.5 18.3 6 3.5v-123l-6 3.4zM879 414.5v6.9l120 69.3 6-3.5zm0 22.5v6.9L979.5 502l6-3.5zm96 195.8 6 3.5V535.8l-6 3.4zm39 22.5 6 3.5V513.3l-6 3.4zm315-358.7-159-91.8-3 1.8v3.4l159 91.8 3-1.7zm576 310-139.5-80.5-6 3.4 145.5 84.2zm0 26.2v-3.7l-159-91.8-3 1.8v3.5l159 91.8zm-162-67.7 139.5 80.5 6-3.4-145.5-84zm162 19-120-69.3-6 3.4 126 72.8zm0-22.5-100.5-58-6 3.4 106.5 61.5zm-162 48.5 100.5 58 6-3.4-106.5-61.5zm-75-284 6-3.5V184.1l-6-3.5zm-21 76.3 106.5-61.5-6-3.5-100.5 58zm0 22.5 126-72.8-6-3.5-120 69.3zm258 114.2-81-46.8-6 3.4 87 50.3zm-258-91.7 145.5-84-6-3.5-139.5 80.6zm162 19.1v-7l-87 50.3 6 3.5zm60 187-126-72.8v6.9l120 69.3zm36-401.9-120-69.3-6 3.5 126 72.8zM1647 92.3l126-72.8-6-3.4-120 69.3zm0 22.5 145.5-84-6-3.4-139.5 80.5zm0-67.5L1728.8 0h-11.9L1647 40.2zm0 22.5 106.5-61.5-6-3.4-100.5 58zm-18-57.2 3 1.7 3-1.7V0h-6zm25.5-11.2V0h-6v4.9zM1809 59.3l-145.5 84.2 6 3.4L1809 66.4zm96 214.8-139.5-80.6-6 3.5 145.5 84zm-258-143.6v3.4l3 1.8 159-91.8v-3.6l-3-1.6zm258 166.1-159-91.8-3 1.8v3.4l159 91.8 3-1.7zm-7.5 42.4v161.1l6 3.5v-168zm7.5-109.9L1804.5 171l-6 3.5L1905 236zm-162-3.5v6.9l139.5 80.6 6-3.5zm-96 154.3 87-50.3-6-3.5-81 46.7zm162 12.1-145.5 84 6 3.5 139.5-80.6zm-121.5 255.5 6-3.5V527.9l-6-3.4zm-39 22.5 6-3.5V505.4l-6-3.4zM1809 414.5l-126 72.8 6 3.5 120-69.3zm0-41.7-3-1.7-159 91.8v3.5l3 1.8 159-91.8zm-141 285.9 6-3.5V516.6l-6-3.4zm156-644.4 6-3.4L1811.1 0h-11.8zm-81 618.5 69.9 40.2h11.9l-81.8-47.3zm66-195.8-106.5 61.5 6 3.5 100.5-58.1zm-121.5-122.1 6-3.5v-116l-6-3.5zm54.8 358.1h10.5l-5.3-3zm-35.3-36.8 6-3.5v-93.6l-6-3.4zM1809 127l-87 50.3 6 3.4 81-46.8zm30 339.4 6 3.5V369.4l-6 3.4zm-30-361.9L1702.5 166l6 3.4 100.5-58zm-66 195.7 81 46.7 6-3.5-87-50.3zm-36 3.4 6-3.5v-93.6l-6-3.5zM1809 82l-126 72.8 6 3.4 120-69.3zm-160.5 87.4v168l6-3.5v-161zM1878 488.9l6 3.5V346.9l-6 3.4zm-249-327.3v183.6l3 1.7 3-1.7V161.6l-3-1.8zm229.5 316 6 3.5v-123l-6 3.4zm-115.5-207v6.9l100.5 58.1 6-3.5zm0-22.5v6.9l120 69.3 6-3.5zm-126 147.3-100.5-58-6 3.5 106.5 61.5zm-96-169.8-145.5 84 6 3.5 139.5-80.6zm-121.5 255.5 6-3.5V361.5l-6-3.4zm121.5-233-126 72.8 6 3.5 120-69.3zM1359 546l87-50.3-6-3.4-81 46.8zm60-76.1 6-3.5v-93.6l-6-3.4zm-58.5 33.7 6-3.5V339l-6-3.4zm19.5-11.2 6-3.5V350.3l-6-3.4zm-21-233.9 126-72.8-6-3.5-120 69.3zm0 22.5 145.5-84-6-3.5-139.5 80.6zm162-10.4-106.5 61.5 6 3.5 100.5-58.1zm-162 29.6 3 1.7 159-91.8v-3.4l-3-1.8-159 91.8zm162 0v-7.1l-87 50.3 6 3.5zM1359 236l106.5-61.5-6-3.5-100.5 58.1zm250.5-63.1V334l6 3.5v-168zm7.5 199.9-81-46.7-6 3.5 87 50.3zm0-242.4-159-91.8-3 1.6v3.6l159 91.8 3-1.8zm0-22.5-139.5-80.5-6 3.4 145.5 84zm0-22.5-120-69.3-6 3.4 126 72.8zm0-22.5-100.5-58-6 3.4L1617 69.8zm-75 446.8-87-50.3v7l81 46.8zM1359 591l126-72.8-6-3.4-120 69.3zm0 22.7 145.5-84.2-6-3.4-139.5 80.5zm0-45.2 106.5-61.5-6-3.4-100.5 58zm258-150.6-120-69.3-6 3.5 126 72.8zm0 22.6-139.5-80.6-6 3.5 145.5 84zM1455 392v6.9l139.5 80.6 6-3.5zm66 211.2-106.5 61.5 6 3.4 100.5-58zm0 22.5-81.8 47.3h11.9l69.9-40.2zm0-86.6-3-1.8-159 91.8v3.7l3 1.6 159-91.8zm30 93.7 6 3.5V535.8l-6 3.4zm-30-74.6-145.5 84 6 3.4 139.5-80.5zm0 22.5-126 72.8 6 3.4 120-69.3zM1455 437v6.9l100.5 58.1 6-3.5zm115.5 207 6 3.5v-123l-6 3.4zm39 22.5 6 3.5V502l-6 3.4zM1617 463l-159-91.8-3 1.7v3.6l159 91.8 3-1.8zm-162-48.5v6.9l120 69.3 6-3.5zm135 240.8 6 3.5V513.3l-6 3.4zM1360.5 3v168l6-3.4V6.5zm210 308.4 6 3.5v-123l-6 3.5zM1455 82v6.9l120 69.3 6-3.4zm-96 131.5 87-50.3-6-3.5-81 46.8zm96-109v6.9l100.5 58 6-3.4zm0-45.2v7.1l139.5 80.5 6-3.4zm96 240.9 6 3.5V203.1l-6 3.5zm39 22.5 6 3.5V180.6l-6 3.5zM1380 14.3v145.5l6-3.4V17.8zM1464.8 0h-11.9L1434 10.9l6 3.4zm-9.8 133.9 81 46.8 6-3.4-87-50.3zm-55.5-108.4v123l6-3.4V29zm19.5 11.3v100.5l6-3.4V40.3zM1041 463l-159-91.8-3 1.7v3.6l159 91.8 3-1.8zM15 206.6v3.4l159 91.8 3-1.7v-3.5L18 204.8zm16.5-9.6L177 281v-6.9L37.5 193.5zm138 303.1 6 3.5v-168l-6 3.4zM51 185.8l126 72.7v-6.9L57 182.3zm99 303.1 6 3.5V346.9l-6 3.4zM15 232.5l139.5 80.6 6-3.5-145.5-84zm96-98.6 6 3.4V36.8l-6 3.5zm45 25.9V14.3l-6 3.5v138.6zM15 255l120 69.3 6-3.5-126-72.7zm121.5-106.5v-123l-6 3.5v116.1zm-66 26L177 236v-6.9L76.5 171zM102 10.9 83.1 0H71.3L96 14.3zm75 195.7-81-46.8-6 3.5 87 50.3zM110.3 0l5.2 3 5.3-3zM267 469.9l6-3.5v-93.6l-6-3.4zM31.5 529.5 177 613.7v-7.1L37.5 526.1zM15 565.1l139.5 80.5 6-3.4-145.5-84zm36-46.9L177 591v-6.9L57 514.8zm-36 69.4 120 69.3 6-3.4-126-72.8zm0 22.5 100.5 58 6-3.4L15 603.2zM70.5 507 177 568.5v-6.9l-100.5-58zM15 277.5l100.5 58.1 6-3.5L15 270.6zm96 188.9 6 3.5V369.4l-6 3.4zM15 300.1l81 46.7 6-3.4-87-50.3zm162 239-81-46.8-6 3.4 87 50.3zm-46.5-61.5 6 3.5v-123l-6 3.4zM207 613.7l145.5-84.2-6-3.4L207 606.6zm0-22.7 126-72.8-6-3.4-120 69.3zm0-22.5L313.5 507l-6-3.4-100.5 58zM15 632.7 85 673h11.8L15 625.7zm375-123-87-50.3v7l81 46.8zm75-69.2-139.5-80.6-6 3.5 145.5 84zM207 546l87-50.3-6-3.4-81 46.8zm258-128.1-120-69.3-6 3.5 126 72.8zm-96-169.8-126 72.8 6 3.5 120-69.3zm-121.5 233 6-3.5V361.5l-6-3.4zm-39 22.5 6-3.5V339l-6-3.4zm160.5-278-145.5 84 6 3.5L369 232.5zM228 492.4l6-3.5V350.3l-6-3.4zm-39-164.6v183.6l3 1.8 3-1.8V327.8l-3-1.7zM457.5 1.4l6 3.5V0h-6zM273.7 0h-10.5l5.3 3zM465 62.9l-100.5-58-6 3.4L465 69.8zm0-22.6L395 0h-12l82 47.4zM175.5 171V3l-6 3.5v161.1zm13.5 7.9 3 1.8 3-1.8V0h-6zm276-71L325.5 27.4l-6 3.4 145.5 84zm-1.5 229.6v-168l-6 3.4V334zM465 85.4 345 16.1l-6 3.4 126 72.8zm0 287.4-81-46.7-6 3.5 87 50.3zm0-242.4L306 38.6l-3 1.6v3.6l159 91.8 3-1.8zm0 265-100.5-58-6 3.5L465 402.4zM15 539.1v3.5l159 91.8 3-1.6v-3.7L18 537.3zM58.5 27.4 0 61.1V68l64.5-37.2zM81 43.9v-3.6l-3-1.6-78 45v7l81-46.8zM81 82 0 128.7v6.9l81-46.8zm0-22.7L0 106.1v7l81-46.8zm0 45.2L0 151.2v6.9l81-46.8zm0 22.5L0 173.7v6.9l81-46.8zM39 16.1 0 38.6v6.9l45-26zm1858.5-9.6v161.1l6 3.4V3zm-54-3.5 5.3-3h-10.5zM0 326.1v6.9l6-3.4zM0 0v.5L.9 0zm19.5 4.9L0 16.1V23L25.5 8.3zm39 355L0 393.7v6.9l64.5-37.2zM0 658.7v6.9l6-3.5zm81-199.2L0 506.3v6.9l81-46.8zM1917 673h3v-14.2l-3 1.7zm0-161.6 3 1.8V326.1l-3 1.7zM25.5 340.9l-6-3.5L0 348.7v6.9l25.5-14.7zM81 437 0 483.8v6.9l81-46.8zm1836-258.1 3 1.8V0h-3zm-39-161.1v138.6l6 3.4V14.3zM39 348.6 0 371.2v6.9l45-26zM24.8 673l-5.3-3-5.2 3zM81 376.4v-3.6l-3-1.7-78 45v7l81-46.7zm0 38.1L0 461.3v6.9l81-46.8zm0-22.5L0 438.8v6.9l81-46.8zm664.5 279.6v1.4h6v-4.9zM966 509.7l-87-50.3v7l81 46.8zM771 660.4l-3-1.7-3 1.7V673h6zm19.5 11.2-6-3.5v4.9h6zm150-1.6-5.3 3h10.5zM483 494.1l-3-1.8-3 1.8V673h6zM195 660.4l-3-1.7-3 1.7V673h6zm189-1.7-6 3.4 18.9 10.9h11.9zm-214.5 12.9v1.4h6v-4.9zM960 658.7l-6 3.4 18.9 10.9h11.9zM364.5 670l-5.3 3h10.5zm1494-641v116.1l6 3.4v-123zm-1644 642.6-6-3.5v4.9h6zm1519.5-9.5-6-3.4-24.7 14.3h11.8zm-99-168-3-1.8-3 1.8V673h6zm262.5 177.5v1.4h6v-4.9zM1536 658.7l-6 3.4 18.9 10.9h11.9zm303-618.4v93.6l6 3.4V36.8zm-21 123 87 50.3v-7l-81-46.8zM1516.5 670l-5.3 3h10.5zm-195 1.6v1.4h6v-4.9zm-163.5-9.5-6-3.4-24.7 14.3h11.8zm-99-168-3-1.8-3 1.8V673h6zm288 166.3-3-1.7-3 1.7V673h6zm19.5 11.2-6-3.5v4.9h6zM582 662.1l-6-3.4-24.8 14.3h11.9zm105-195.7 6 3.5V369.4l-6 3.4zm-96-195.8v6.9l100.5 58.1 6-3.5zm115.5 207 6 3.5v-123l-6 3.4zM591 300.2l81 46.7 6-3.5-87-50.3zM657 127l-87 50.3 6 3.4 81-46.8zm-66 121.1v6.9l120 69.3 6-3.5zM495 92.3l126-72.8-6-3.4-120 69.3zm162 12.2L550.5 166l6 3.4 100.5-58zM495 47.3 576.8 0h-11.9L495 40.2zm0 67.5 145.5-84-6-3.4L495 107.9zm96 110.8v6.9l139.5 80.6 6-3.5zm135 263.3 6 3.5V346.9l-6 3.4zm-231-355 3 1.8 159-91.8v-3.6l-3-1.6-159 91.8zm0-64.1L601.5 8.3l-6-3.4-100.5 58zm0 377.6 145.5-84-6-3.5L495 440.5zm0-22.5 126-72.8-6-3.5-120 69.3zm96 185.2 100.5 58 6-3.4L591 603.2zm-96-230.2 87-50.3-6-3.5-81 46.7zm222 273.6-126-72.8v6.9l120 69.3zm-60-187v-7l-87 50.3 6 3.5zM535.5 314.9l6-3.5v-116l-6-3.5zm19.5-11.3 6-3.5v-93.6l-6-3.5zm-58.5 33.8 6-3.5v-161l-6-3.5zM657 82l-126 72.8 6 3.4 120-69.3zM516 326.1l6-3.5V184.1l-6-3.5zM657 59.3l-145.5 84.2 6 3.4L657 66.4zM369 300.2v-7.1l-87 50.3 6 3.5zm672-214.8L921 16.1l-6 3.4 126 72.8zM849.7 0h-10.5l5.3 3zM1041 62.9l-100.5-58-6 3.4L1041 69.8zm0 67.5L882 38.6l-3 1.6v3.6l159 91.8 3-1.8zm0-90.1L971 0h-12l82 47.4zm-7.5-38.9 6 3.5V0h-6zm7.5 106.5L901.5 27.4l-6 3.4 145.5 84zm0 310-120-69.3-6 3.5 126 72.8zm-1.5-80.4v-168l-6 3.4V334zm1.5 103-139.5-80.6-6 3.5 145.5 84zm0-67.7-81-46.7-6 3.5 87 50.3zm0 22.6-100.5-58-6 3.5 106.5 61.5zM591 632.8l69.9 40.2h11.9L591 625.7zM657 392l-145.5 84 6 3.5L657 398.9zM516 658.7l6-3.5V516.6l-6-3.4zm19.5-11.2 6-3.5V527.9l-6-3.4zM657 372.8l-3-1.7-159 91.8v3.5l3 1.8 159-91.8zM496.5 670l6-3.5V505.4l-6-3.4zM657 414.5l-126 72.8 6 3.5 120-69.3zm108-235.6 3 1.8 3-1.8V0h-6zm0 148.9v183.6l3 1.8 3-1.8V327.8l-3-1.7zM672 14.3l6-3.4L659.1 0h-11.8zM555 636.2l6-3.5v-93.6l-6-3.4zm35.3 36.8h10.5l-5.3-3zM657 437l-106.5 61.5 6 3.5L657 443.9zm-162-34.6 106.5-61.5-6-3.5-100.5 58zM312.8 0h-11.9L282 10.9l6 3.4zM208.5 3v168l6-3.4V6.5zM369 539.1l-3-1.8-159 91.8v3.7l3 1.6 159-91.8zM207 213.5l87-50.3-6-3.5-81 46.8zm60-176.7v100.5l6-3.4V40.3zm-19.5-11.3v123l6-3.4V29zM228 14.3v145.5l6-3.4V17.8zm141 611.4L287.2 673h11.9l69.9-40.2zm0-67.5-145.5 84 6 3.4L369 565.1zm30 74.6 6 3.5V535.8l-6 3.4zm-30-29.6-106.5 61.5 6 3.4 100.5-58zm0-22.5-126 72.8 6 3.4 120-69.3zM303 82v6.9l120 69.3 6-3.4zm-96 176.5 126-72.8-6-3.5-120 69.3zm0 22.5 145.5-84-6-3.5L207 274.1zm96-147.1 81 46.8 6-3.4-87-50.3zM207 236l106.5-61.5-6-3.5L207 229.1zm0 64.2 3 1.7 159-91.8v-3.4l-3-1.8-159 91.8zm162-29.6-106.5 61.5 6 3.5L369 277.5zm222 294.5 139.5 80.5 6-3.4-145.5-84zM303 437v6.9L403.5 502l6-3.5zm96-136.8 6 3.5V203.1l-6 3.5zm39 22.5 6 3.5V180.6l-6 3.5zM303 104.5v6.9l100.5 58 6-3.4zm0-45.2v7.1l139.5 80.5 6-3.4zm115.5 252.1 6 3.5v-123l-6 3.5zm327 27.6v161.1l6 3.5v-168zm7.5-87.4-120-69.3-6 3.5 126 72.7zm0 45-159-91.8-3 1.8v3.4l159 91.8 3-1.7zm0-22.5-139.5-80.6-6 3.5L753 281zm0-45L652.5 171l-6 3.5L753 236zm0-22.5-81-46.8-6 3.5 87 50.3zm0 377.5-120-69.3-6 3.4L753 591zm0 22.5-139.5-80.5-6 3.4L753 613.7zM418.5 644l6 3.5v-123l-6 3.4zM753 539.1l-81-46.8-6 3.4 87 50.3zM687 40.3v93.6l6 3.4V36.8zm66 521.3-100.5-58-6 3.4L753 568.5zm0 71.2v-3.7l-159-91.8-3 1.8v3.5l159 91.8zM303 392v6.9l139.5 80.6 6-3.5zm154.5 274.5 6 3.5V502l-6 3.4zM465 463l-159-91.8-3 1.7v3.6l159 91.8 3-1.8zm12-301.4v183.6l3 1.7 3-1.7V161.6l-3-1.8zM303 414.5v6.9l120 69.3 6-3.5zm135 240.8 6 3.5V513.3l-6 3.4zm39-642.7 3 1.7 3-1.7V0h-6zM706.5 29v116.1l6 3.4v-123zm39-22.5v161.1l6 3.4V3zM726 17.8v138.6l6 3.4V14.3zM502.5 1.4V0h-6v4.9zm189 1.6 5.3-3h-10.5z" fill="#81a035"/><path d="m1311.8 465.3 83-11.4v80.2h-83m93-81.8 110-16.1v97.2h-110m-93 9.2h83v80.5l-83-11.6m93-67.8h110V640l-110-15.6" fill="#fff"/><path d="M960 45.5c-143.7 0-260.5 116.7-260.5 260.5h521C1220.7 162 1104 45.5 960 45.5z" fill="#7cb342"/><path d="M960 306H699.5c0 143.7 116.7 260.5 260.5 260.5s260.5-116.7 260.5-260.5H960z" fill="#8bc34a"/><path d="M1168.9 578.8c-.2-2.4-.9-4.5-2.1-6.6L1091 440.8l-25.1-43.8-46.9-81-35.8 35.8 44 76.5 24.2 41.9 73.2 126.5c1.2 2.1 2.8 3.8 4.7 5l36.5 24.9c1.4.9 3.1.9 4.5.2 1.4-.9 2.1-2.4 2.1-4l-3.5-44z" fill="#e1e1e1"/><path d="M1099.5 306c0 34.6-12.8 66.3-33.9 90.9-10.9 12.6-23.7 23.2-38.4 31.3-19.9 11.1-42.9 17.3-67.3 17.3s-47.4-6.4-67-17.3l44-76.5-35.6-35.7-148 256.2c-1.2 2.1-1.9 4.3-2.1 6.6l-3.3 44c-.2 1.7.7 3.1 2.1 4 1.4.9 3.1.7 4.5-.2L791 602c1.9-1.4 3.6-3.1 4.7-5l73.2-126.7c27 15.2 58.3 23.9 91.4 23.9s64.4-8.8 91.4-23.9c14.4-8.1 27.7-18 39.3-29.4 35-34.1 57.1-81.9 57.1-134.7l-48.6-.2z" fill="#f1f1f1"/><path d="M1005.5 209.1h-15.2v-48.7h-60.4v48.7h-15.4c-14.9 0-27.2 12.3-27.2 27.2v61.8h.2c-.2 2.4 1.2 5 4.3 8.1l54.7 54.7c3.8 3.8 8.8 5.7 13.5 5.7v-.2l.2.2c5 0 9.9-1.9 13.5-5.7l54.7-54.7c3.1-3.1 4.3-5.9 4.3-8.1h.2v-61.6c-.2-15-12.3-27.4-27.4-27.4zM960.2 306h-.2c-19.9 0-36.2-16.3-36.2-36.5S940.1 233 960 233v-.5l.2.5c19.9.2 36.2 16.3 36.2 36.5s-16.3 36.3-36.2 36.5z" fill="#646464"/></svg>