<svg xmlns="http://www.w3.org/2000/svg" viewBox="0 0 1920 673" xml:space="preserve"><path fill="#3b3e43" d="M0 0h1920v673H0z"/><linearGradient id="a" gradientUnits="userSpaceOnUse" x1="24.035" y1="856" x2="32.703" y2="856" gradientTransform="matrix(29.8 0 0 -26.5 -28.1 23060.902)"><stop offset=".26" stop-color="#f97a12"/><stop offset=".46" stop-color="#b07b58"/><stop offset=".72" stop-color="#577bae"/><stop offset=".91" stop-color="#1e7ce5"/><stop offset="1" stop-color="#087cfa"/></linearGradient><path fill="url(#a)" d="M822.8 492 688.1 386 755 261.8l192 74.7z"/><linearGradient id="b" gradientUnits="userSpaceOnUse" x1="22.235" y1="869.727" x2="32.73" y2="865.985" gradientTransform="matrix(40.6 0 0 -63 -16.2 55049)"><stop offset="0" stop-color="#f97a12"/><stop offset=".07" stop-color="#cb7a3e"/><stop offset=".15" stop-color="#9e7b6a"/><stop offset=".24" stop-color="#757b91"/><stop offset=".33" stop-color="#537bb1"/><stop offset=".43" stop-color="#387ccc"/><stop offset=".54" stop-color="#237ce0"/><stop offset=".66" stop-color="#147cef"/><stop offset=".79" stop-color="#0b7cf7"/><stop offset="1" stop-color="#087cfa"/></linearGradient><path fill="url(#b)" d="m1237.9 207.1-10.4 321.4-213.6 85.9-128.6-83.3 187.6-194.6-81.6-180.7 73.8-88.6z"/><linearGradient id="c" gradientUnits="userSpaceOnUse" x1="41.405" y1="861.624" x2="37.231" y2="870.69" gradientTransform="matrix(28.4 0 0 -39.1 8.2 34088.7)"><stop offset="0" stop-color="#fe315d"/><stop offset=".08" stop-color="#cb417e"/><stop offset=".16" stop-color="#9e4e9b"/><stop offset=".25" stop-color="#755bb4"/><stop offset=".34" stop-color="#5365ca"/><stop offset=".44" stop-color="#386ddb"/><stop offset=".54" stop-color="#2374e9"/><stop offset=".66" stop-color="#1478f3"/><stop offset=".79" stop-color="#0b7bf8"/><stop offset="1" stop-color="#087cfa"/></linearGradient><path fill="url(#c)" d="m1237.9 207.1-169.3 199.8-77.3-251.1 73.8-88.6z"/><linearGradient id="d" gradientUnits="userSpaceOnUse" x1="16.608" y1="870.716" x2="23.854" y2="861.284" gradientTransform="matrix(49.1 0 0 -62.4 -48.1 54521.8)"><stop offset="0" stop-color="#fe315d"/><stop offset=".04" stop-color="#f63462"/><stop offset=".1" stop-color="#df3a71"/><stop offset=".17" stop-color="#c24383"/><stop offset=".29" stop-color="#ad4a91"/><stop offset=".55" stop-color="#755bb4"/><stop offset=".92" stop-color="#1d76ed"/><stop offset="1" stop-color="#087cfa"/></linearGradient><path fill="url(#d)" d="m949.6 519.8-222.4 80.8 35.6-125.1 46.1-154.6-126.8-42.6 80.7-219.7 173.7 20.8 172 196.3z"/><path d="M786.3 162.8h347.4v347.4H786.3z"/><path d="M819.3 445.1h130.3v21.7H819.3zM912.2 234v-26.1H841V234h20v91.2h-20v26.9h71.2v-26.9h-19.9V234zm69.5 119.9c-9.9.4-19.8-1.6-28.7-6.1-7.3-4-13.7-9.3-19.1-15.6l20-22.6c3.6 4 7.7 7.5 12.2 10.4 4.2 2.5 9 3.7 13.9 3.5 5.4.4 10.6-1.9 13.9-6.1 4-5.2 5.9-11.7 5.2-18.2v-92.9h32.1V300c.3 7.7-.9 15.4-3.5 22.6-2.3 7.3-6.5 13.9-12.2 19.1-9.8 7.3-21.5 11.6-33.8 12.2" style="fill:#fff"/></svg>